<?xml version="1.0" encoding="utf-8"?>
<!-- Generator: Adobe Illustrator 23.1.0, SVG Export Plug-In . SVG Version: 6.00 Build 0)  -->
<svg version="1.1" id="Layer_1" xmlns="http://www.w3.org/2000/svg" xmlns:xlink="http://www.w3.org/1999/xlink" x="0px" y="0px"
	 viewBox="0 0 209 28" style="enable-background:new 0 0 209 28;" xml:space="preserve">
<style type="text/css">
	.st0{clip-path:url(#SVGID_2_);}
	.st1{fill:#00579F;}
	.st2{fill:#FAA61A;}
	.st3{fill:#FF5A00;}
	.st4{fill:#EB001B;}
	.st5{fill:#F79E1B;}
</style>
<g>
	<g>
		<defs>
			<rect id="SVGID_1_" x="45.5" y="3" width="67" height="22"/>
		</defs>
		<clipPath id="SVGID_2_">
			<use xlink:href="#SVGID_1_"  style="overflow:visible;"/>
		</clipPath>
		<g class="st0">
			<path class="st1" d="M74.5,24.7h-5.4l3.4-21.3h5.4L74.5,24.7z"/>
			<path class="st1" d="M94.2,3.9C93.1,3.5,91.4,3,89.3,3c-5.4,0-9.1,2.9-9.2,7c0,3.1,2.7,4.8,4.8,5.8c2.1,1,2.8,1.7,2.8,2.7
				c0,1.4-1.7,2.1-3.3,2.1c-2.2,0-3.3-0.3-5.1-1.1l-0.7-0.3l-0.8,4.8c1.3,0.6,3.6,1.1,6.1,1.1c5.7,0,9.4-2.9,9.4-7.3
				c0-2.4-1.4-4.3-4.6-5.8c-1.9-1-3.1-1.6-3.1-2.6c0-0.9,1-1.8,3.1-1.8c1.8,0,3.1,0.4,4,0.8l0.5,0.2L94.2,3.9z"/>
			<path class="st1" d="M101.4,17.1c0.4-1.2,2.2-6,2.2-6c0,0,0.4-1.2,0.7-2l0.4,1.8c0,0,1,5.1,1.3,6.2
				C105.1,17.1,102.5,17.1,101.4,17.1z M108.1,3.4h-4.2c-1.3,0-2.3,0.4-2.8,1.8L93,24.7h5.7c0,0,0.9-2.6,1.1-3.2c0.6,0,6.2,0,7,0
				c0.2,0.7,0.6,3.2,0.6,3.2h5L108.1,3.4z"/>
			<path class="st1" d="M64.6,3.4l-5.3,14.5L58.7,15c-1-3.4-4.1-7.1-7.5-8.9L56,24.7h5.7l8.5-21.3H64.6z"/>
			<path class="st2" d="M54.3,3.4h-8.7l-0.1,0.4c6.8,1.8,11.3,6,13.2,11.1l-1.9-9.8C56.5,3.8,55.5,3.4,54.3,3.4z"/>
		</g>
	</g>
	<path d="M134.8,27.9v-1.9c0-0.7-0.4-1.2-1.1-1.2c-0.4,0-0.8,0.1-1,0.5c-0.2-0.3-0.5-0.5-1-0.5c-0.3,0-0.6,0.1-0.8,0.4V25h-0.6v3
		h0.6v-1.6c0-0.5,0.3-0.8,0.7-0.8c0.4,0,0.6,0.3,0.6,0.8v1.6h0.6v-1.6c0-0.5,0.3-0.8,0.7-0.8c0.4,0,0.6,0.3,0.6,0.8v1.6H134.8z
		 M144.2,25h-1v-0.9h-0.6V25H142v0.6h0.6v1.4c0,0.7,0.3,1.1,1,1.1c0.3,0,0.6-0.1,0.8-0.2l-0.2-0.6c-0.2,0.1-0.4,0.2-0.5,0.2
		c-0.3,0-0.4-0.2-0.4-0.5v-1.3h1L144.2,25L144.2,25z M149.5,24.9c-0.4,0-0.6,0.2-0.8,0.4V25h-0.6v3h0.6v-1.7c0-0.5,0.2-0.8,0.6-0.8
		c0.1,0,0.3,0,0.4,0.1l0.2-0.6C149.8,24.9,149.7,24.9,149.5,24.9z M141.5,25.2c-0.3-0.2-0.7-0.3-1.2-0.3c-0.7,0-1.2,0.4-1.2,1
		c0,0.5,0.4,0.8,1,0.9l0.3,0c0.3,0.1,0.5,0.2,0.5,0.3c0,0.2-0.2,0.4-0.7,0.4c-0.4,0-0.8-0.2-1-0.3l-0.3,0.5c0.3,0.2,0.8,0.4,1.2,0.4
		c0.8,0,1.3-0.4,1.3-1c0-0.5-0.4-0.8-1-0.9l-0.3,0c-0.3,0-0.5-0.1-0.5-0.3c0-0.2,0.2-0.3,0.5-0.3c0.4,0,0.7,0.2,0.9,0.2L141.5,25.2z
		 M158.2,24.9c-0.4,0-0.6,0.2-0.8,0.4V25h-0.6v3h0.6v-1.7c0-0.5,0.2-0.8,0.6-0.8c0.1,0,0.3,0,0.4,0.1l0.2-0.6
		C158.5,24.9,158.4,24.9,158.2,24.9z M150.2,26.5c0,0.9,0.6,1.5,1.5,1.5c0.4,0,0.7-0.1,1-0.3l-0.3-0.5c-0.2,0.2-0.5,0.3-0.8,0.3
		c-0.5,0-0.9-0.4-0.9-1c0-0.6,0.4-0.9,0.9-1c0.3,0,0.5,0.1,0.8,0.3l0.3-0.5c-0.3-0.2-0.6-0.3-1-0.3
		C150.8,24.9,150.2,25.6,150.2,26.5z M156,26.5V25h-0.6v0.4c-0.2-0.3-0.5-0.4-0.9-0.4c-0.8,0-1.4,0.6-1.4,1.5c0,0.9,0.6,1.5,1.4,1.5
		c0.4,0,0.7-0.2,0.9-0.4v0.4h0.6V26.5z M153.7,26.5c0-0.5,0.3-1,0.9-1c0.5,0,0.9,0.4,0.9,1c0,0.5-0.4,1-0.9,1
		C154,27.4,153.7,27,153.7,26.5z M146.2,24.9c-0.8,0-1.4,0.6-1.4,1.5c0,0.9,0.6,1.5,1.5,1.5c0.4,0,0.8-0.1,1.2-0.4l-0.3-0.5
		c-0.2,0.2-0.5,0.3-0.8,0.3c-0.4,0-0.8-0.2-0.9-0.7h2.1c0-0.1,0-0.2,0-0.2C147.5,25.5,147,24.9,146.2,24.9z M146.2,25.5
		c0.4,0,0.7,0.2,0.7,0.7h-1.5C145.4,25.8,145.7,25.5,146.2,25.5z M161.8,26.5v-2.7h-0.6v1.5c-0.2-0.3-0.5-0.4-0.9-0.4
		c-0.8,0-1.4,0.6-1.4,1.5c0,0.9,0.6,1.5,1.4,1.5c0.4,0,0.7-0.2,0.9-0.4v0.4h0.6V26.5z M159.5,26.5c0-0.5,0.3-1,0.9-1
		c0.5,0,0.9,0.4,0.9,1c0,0.5-0.4,1-0.9,1C159.8,27.4,159.5,27,159.5,26.5z M138.4,26.5V25h-0.6v0.4c-0.2-0.3-0.5-0.4-0.9-0.4
		c-0.8,0-1.4,0.6-1.4,1.5c0,0.9,0.6,1.5,1.4,1.5c0.4,0,0.7-0.2,0.9-0.4v0.4h0.6V26.5z M136,26.5c0-0.5,0.3-1,0.9-1
		c0.5,0,0.9,0.4,0.9,1c0,0.5-0.4,1-0.9,1C136.4,27.4,136,27,136,26.5z"/>
	<path class="st3" d="M150.7,2.4h-9.5v17.5h9.5V2.4z"/>
	<path class="st4" d="M141.9,11.1c0-3.6,1.6-6.7,4.1-8.8c-1.8-1.5-4.2-2.4-6.7-2.4c-6,0-10.8,5-10.8,11.1s4.8,11.1,10.8,11.1
		c2.5,0,4.8-0.9,6.7-2.4C143.5,17.9,141.9,14.7,141.9,11.1z"/>
	<path class="st5" d="M163.5,11.1c0,6.2-4.8,11.1-10.8,11.1c-2.5,0-4.8-0.9-6.7-2.4c2.5-2,4.1-5.2,4.1-8.8c0-3.6-1.6-6.7-4.1-8.8
		c1.8-1.5,4.1-2.4,6.7-2.4C158.7,0,163.5,5,163.5,11.1z"/>
</g>
</svg>
