<?xml version="1.0" encoding="utf-8"?>
<!-- Generator: Adobe Illustrator 23.1.0, SVG Export Plug-In . SVG Version: 6.00 Build 0)  -->
<svg version="1.1" id="Layer_1" xmlns="http://www.w3.org/2000/svg" xmlns:xlink="http://www.w3.org/1999/xlink" x="0px" y="0px"
	 viewBox="0 0 174 46" style="enable-background:new 0 0 174 46;" xml:space="preserve">
<style type="text/css">
	.st0{fill:#60B238;}
	.st1{fill:#373435;}
</style>
<g id="Слой_x0020_1">
	<polygon class="st0" points="33.8,33.5 29.6,33.5 29.6,18.5 44.8,18.5 44.8,33.5 40.6,33.5 40.6,21.4 33.8,21.4 	"/>
	<path class="st0" d="M46.9,22.6v14.8h3.9v-5.1c1.3,1.4,3.4,1.5,3.9,1.5c3.7,0,6-2.4,6-5.8c0-3.6-2.3-5.8-5.9-5.8
		c-0.9,0-2.7,0.1-4.2,1.7h-0.1l0-1.3C50.5,22.6,46.9,22.6,46.9,22.6z M50.6,28c0-3,1.9-3.6,3-3.6c1.2,0,3,0.6,3,3.6
		c0,1.9-0.8,3.7-3,3.7C51.3,31.7,50.6,29.9,50.6,28z"/>
	<path class="st0" d="M70.3,32.2c-1.4,1.3-2.8,1.7-4.3,1.7c-4.2,0-4.3-3.2-4.3-4.5v-6.8h3.9v6.3c0,2.2,0.7,2.8,2.2,2.8
		c2.5,0,2.6-2.2,2.6-3v-6.1h3.9v10.8h-3.9C70.3,33.5,70.3,32.2,70.3,32.2z"/>
	<path class="st0" d="M79.8,28.9h2.4c1.8,0,2.2,0.6,2.2,1.3c0,0.5-0.3,1.1-2.2,1.1h-2.4C79.8,31.3,79.8,28.9,79.8,28.9z M75.9,22.6
		v10.8h7.7c2.8,0,4.8-0.6,4.8-2.8c0-1.7-0.9-2.5-3.1-2.8v-0.1c1.4-0.2,2.6-1.1,2.6-2.5c0-2.6-3.1-2.6-4.3-2.6
		C83.6,22.6,75.9,22.6,75.9,22.6z M79.8,24.8h2.1c1.1,0,2,0.2,2,1.1c0,1-1.5,1-2.1,1h-2V24.8z"/>
	<path class="st0" d="M93.3,26.1c0-1.6,1.7-1.7,2.4-1.7c0.4,0,2,0,2.1,1.4c0,0.1,0,0.2,0,0.3c-0.1,1.1-1.1,0.9-4,1.2
		c-2.4,0.3-4.8,0.9-4.8,3.4c0,0.9,0.4,3.1,4.5,3.1c1.6,0,3.3-0.4,4.3-1.5h0.1l0.3,1.1h4.1v-0.2c-0.7-0.1-0.8-0.9-0.8-2l0.1-4.9
		c0-1.3-0.1-4-6-4c-1.4,0-5.9,0.1-6.1,3.9C89.6,26.1,93.3,26.1,93.3,26.1z M97.8,29c0,2.2-1.9,2.7-2.8,2.7c-0.7,0-2-0.2-2-1.3
		c0-1.2,1.5-1.5,2.3-1.6c1.5-0.2,1.4-0.1,2.6-0.6V29z"/>
	<polygon class="st0" points="102.1,24.8 102.1,22.6 114.6,22.6 114.6,24.8 110.3,24.8 110.3,33.5 106.4,33.5 106.4,24.8 	"/>
	<path class="st0" d="M119.5,21.4h9.7v-2.9h-13.9v14.9h8.5c4.1,0,6.8-1.4,6.8-4.5c0-4.8-5.3-4.9-6.8-4.9h-4.3L119.5,21.4L119.5,21.4
		z M119.5,27h3.5c1,0,3.1,0.1,3.1,1.9c0,1.4-1.5,1.7-3.1,1.7h-3.4L119.5,27L119.5,27z"/>
	<path class="st0" d="M135.7,26.1c0-1.6,1.7-1.7,2.4-1.7c0.4,0,2,0,2.1,1.4c0,0.1,0,0.2,0,0.3c-0.1,1.1-1.1,0.9-4,1.2
		c-2.4,0.3-4.8,0.9-4.8,3.4c0,0.9,0.4,3.1,4.5,3.1c1.6,0,3.3-0.4,4.3-1.5h0.1l0.3,1.1h4.1v-0.2c-0.7-0.1-0.8-0.9-0.8-2l0.1-4.9
		c0-1.3-0.1-4-6-4c-1.4,0-5.9,0.1-6.1,3.9C132,26.1,135.7,26.1,135.7,26.1z M140.2,29c0,2.2-1.9,2.7-2.8,2.7c-0.7,0-2-0.2-2-1.3
		c0-1.2,1.5-1.5,2.3-1.6c1.5-0.2,1.4-0.1,2.6-0.6L140.2,29L140.2,29z"/>
	<polygon class="st0" points="149.6,33.5 145.8,33.5 145.8,22.6 149.6,22.6 149.6,26.7 154.3,26.7 154.3,22.6 158.2,22.6 
		158.2,33.5 154.3,33.5 154.3,28.9 149.6,28.9 	"/>
	<polygon class="st0" points="168,22.6 172.4,22.6 167,27.7 172.6,33.5 168.1,33.5 163.9,28.7 163.8,28.7 163.8,33.5 159.9,33.5 
		159.9,22.6 163.8,22.6 163.8,27 163.9,27 	"/>
	<polygon class="st1" points="1.4,33.5 11.1,33.5 11.1,23.8 1.4,23.8 	"/>
	<path class="st0" d="M21.2,13.7c0,3.3,0,11.3,0,14.6c-0.9,0-1.1,0-2,0c-0.9-7.2-5.4-11.8-12.6-12.6c0-0.9,0-1.1,0-2
		C9.9,13.7,17.8,13.7,21.2,13.7z M1.4,8.6v12.1H4c6.8,0,10.2,3.4,10.2,10.2v2.6h12.1V8.6C26.3,8.6,1.4,8.6,1.4,8.6z"/>
</g>
</svg>
